name analog
datacolumns 19
datarows 57
range 0.585 0.613
endheader
time	ground_force_vx	ground_force_vy	ground_force_vz	ground_force_px	ground_force_py	ground_force_pz	l_ground_force_vx	l_ground_force_vy	l_ground_force_vz	l_ground_force_px	l_ground_force_py	l_ground_force_pz	ground_torque_x	ground_torque_y	ground_torque_z	l_ground_torque_x	l_ground_torque_y	l_ground_torque_z
0.585	-0.0	-0.0	-0.0	-24.78999328613281	103.74281311035156	-460.8384094238281	6.732728481292725	-77.90898132324219	-331.4180603027344	-0.0	-0.0	-0.0	-0.0	-0.0	-0.0	43323.47265625	26291.033203125	-1399.889892578125
0.5855	-0.0	-0.0	-0.0	-24.53289031982422	101.37294006347656	-449.9930725097656	7.619797229766846	-76.40754699707031	-326.8793640136719	-0.0	-0.0	-0.0	-0.0	-0.0	-0.0	42219.3046875	26035.859375	-1031.925537109375
0.586	-0.0	-0.0	-0.0	-24.48624610900879	99.16616821289062	-440.3992309570313	9.02029037475586	-75.80809783935547	-324.36187744140625	-0.0	-0.0	-0.0	-0.0	-0.0	-0.0	41746.27734375	25619.89453125	-589.0343017578125
0.5865	-0.0	-0.0	-0.0	-24.543581008911133	96.9167938232422	-430.6110229492188	9.165567398071287	-74.75779724121094	-319.0873718261719	-0.0	-0.0	-0.0	-0.0	-0.0	-0.0	40993.21484375	25491.77734375	-410.7452697753906
0.587	-0.0	-0.0	-0.0	-23.99762725830078	95.5049057006836	-425.0162353515625	9.552290916442873	-74.04193115234375	-314.93475341796875	-0.0	-0.0	-0.0	-0.0	-0.0	-0.0	40276.34375	25123.599609375	-464.4207458496094
0.5875	-0.0	-0.0	-0.0	-24.089618682861328	93.1872329711914	-414.8043212890625	8.722350120544434	-73.75813293457031	-311.49127197265625	-0.0	-0.0	-0.0	-0.0	-0.0	-0.0	39148.03125	25128.923828125	-421.4313049316406
0.588	-0.0	-0.0	-0.0	-23.118831634521484	91.13461303710938	-407.8799133300781	8.063077926635742	-72.78662872314453	-305.81903076171875	-0.0	-0.0	-0.0	-0.0	-0.0	-0.0	38960.16796875	25246.73046875	-593.18896484375
0.5885	-0.0	-0.0	-0.0	-21.687000274658203	89.3848648071289	-401.9619140625	7.442050933837891	-72.96333312988281	-305.4696960449219	-0.0	-0.0	-0.0	-0.0	-0.0	-0.0	38346.7578125	25361.490234375	-626.4989624023438
0.589	-0.0	-0.0	-0.0	-20.41675567626953	87.91545104980469	-395.338623046875	7.245107650756836	-74.19021606445312	-302.5613708496094	-0.0	-0.0	-0.0	-0.0	-0.0	-0.0	37685.203125	25284.3515625	-554.1485595703125
0.5895	-0.0	-0.0	-0.0	-18.053539276123047	86.14395904541016	-392.6925048828125	7.806549072265625	-74.72015380859375	-300.3088073730469	-0.0	-0.0	-0.0	-0.0	-0.0	-0.0	37544.65234375	25192.181640625	-412.1204528808594
0.59	-0.0	-0.0	-0.0	-15.734286308288574	84.406494140625	-387.526123046875	8.151554107666016	-75.09302520751953	-299.14483642578125	-0.0	-0.0	-0.0	-0.0	-0.0	-0.0	37168.28125	25114.115234375	-408.7777099609375
0.5905	-0.0	-0.0	-0.0	-13.827442169189451	82.20046997070312	-382.5379333496094	8.831801414489746	-76.41768646240234	-299.765625	-0.0	-0.0	-0.0	-0.0	-0.0	-0.0	36772.66015625	25126.1484375	-293.2391662597656
0.591	-0.0	-0.0	-0.0	-12.154964447021484	81.00837707519531	-378.8736877441406	10.083250999450684	-77.2709732055664	-298.25360107421875	-0.0	-0.0	-0.0	-0.0	-0.0	-0.0	36840.671875	25175.490234375	40.2341423034668
0.5915	-0.0	-0.0	-0.0	-10.71650218963623	79.12533569335938	-373.0887145996094	10.931424140930176	-78.38983917236328	-296.5084533691406	-0.0	-0.0	-0.0	-0.0	-0.0	-0.0	36695.859375	25118.66796875	76.85552215576172
0.592	-0.0	-0.0	-0.0	-10.270513534545898	76.95342254638672	-365.9839172363281	12.43778133392334	-78.89129638671875	-297.82635498046875	-0.0	-0.0	-0.0	-0.0	-0.0	-0.0	36475.43359375	24711.78515625	410.8337097167969
0.5925	-0.0	-0.0	-0.0	-9.4125337600708	75.3265380859375	-357.6878662109375	13.63111686706543	-79.48951721191406	-297.5567932128906	-0.0	-0.0	-0.0	-0.0	-0.0	-0.0	36551.8359375	24892.7265625	833.6261596679688
0.593	-0.0	-0.0	-0.0	-9.243609428405762	73.16685485839844	-350.7529296875	14.419118881225586	-79.10874938964844	-297.7060852050781	-0.0	-0.0	-0.0	-0.0	-0.0	-0.0	36076.2890625	24723.546875	942.8162841796876
0.5935	-0.0	-0.0	-0.0	-9.021729469299316	71.12606811523438	-343.0285339355469	14.893187522888184	-78.9901351928711	-296.42974853515625	-0.0	-0.0	-0.0	-0.0	-0.0	-0.0	36302.45703125	24510.044921875	1334.56103515625
0.594	-0.0	-0.0	-0.0	-8.06668472290039	69.20819854736328	-334.3823547363281	13.869773864746094	-79.67247009277344	-294.7244873046875	-0.0	-0.0	-0.0	-0.0	-0.0	-0.0	36105.34375	24613.984375	1225.1871337890625
0.5945	-0.0	-0.0	-0.0	-8.17259693145752	66.78533935546875	-326.9987487792969	12.883755683898926	-80.08717346191406	-295.0738525390625	-0.0	-0.0	-0.0	-0.0	-0.0	-0.0	36077.90234375	24159.03125	793.20947265625
0.595	-0.0	-0.0	-0.0	-7.842721462249756	64.91017150878906	-319.274658203125	11.297426223754885	-81.20899200439453	-297.78546142578125	-0.0	-0.0	-0.0	-0.0	-0.0	-0.0	36483.92578125	23996.46875	650.4348754882812
0.5955	-0.0	-0.0	-0.0	-8.148852348327637	64.06578063964844	-314.89752197265625	10.290451049804688	-81.17804718017578	-300.6195678710937	-0.0	-0.0	-0.0	-0.0	-0.0	-0.0	36918.9765625	23914.265625	550.3161010742188
0.596	-0.0	-0.0	-0.0	-8.55246639251709	62.46868133544922	-307.14581298828125	8.646936416625977	-81.66620635986328	-304.4375305175781	-0.0	-0.0	-0.0	-0.0	-0.0	-0.0	37651.4375	23858.775390625	144.25743103027344
0.5965	-0.0	-0.0	-0.0	-9.355317115783691	61.44110107421875	-304.3011169433594	7.10740327835083	-81.54190826416016	-307.6855773925781	-0.0	-0.0	-0.0	-0.0	-0.0	-0.0	38555.328125	23900.748046875	-82.03428649902344
0.597	-0.0	-0.0	-0.0	-9.878656387329102	60.484012603759766	-303.24078369140625	5.59938907623291	-81.3231430053711	-311.6102600097656	-0.0	-0.0	-0.0	-0.0	-0.0	-0.0	39005.03125	23753.134765625	-90.19276428222656
0.5975	-0.0	-0.0	-0.0	-10.62798023223877	59.60440444946289	-301.2398986816406	5.45409107208252	-80.7685775756836	-317.1686096191406	-0.0	-0.0	-0.0	-0.0	-0.0	-0.0	40161.2578125	23271.857421875	-309.70428466796875
0.598	-0.0	-0.0	-0.0	-11.484150886535645	58.91519927978516	-302.7227478027344	5.645221710205078	-80.25228118896484	-321.8331298828125	-0.0	-0.0	-0.0	-0.0	-0.0	-0.0	40653.85546875	22811.37109375	-157.49581909179688
0.5985	-0.0	-0.0	-0.0	-11.597366333007812	58.90315628051758	-304.44110107421875	7.163963317871094	-79.40119934082031	-325.5368957519531	-0.0	-0.0	-0.0	-0.0	-0.0	-0.0	42045.7578125	22467.923828125	73.91921997070312
0.599	-0.0	-0.0	-0.0	-11.252615928649902	58.99681091308594	-305.2613220214844	8.007612228393555	-78.5071792602539	-331.6513366699219	-0.0	-0.0	-0.0	-0.0	-0.0	-0.0	43288.69921875	22008.08203125	204.28167724609372
0.5995	-0.0	-0.0	-0.0	-10.689042091369627	58.46954345703125	-306.91339111328125	9.126293182373049	-77.05998992919922	-337.457763671875	-0.0	-0.0	-0.0	-0.0	-0.0	-0.0	44697.41015625	21015.97265625	498.9653930664063
0.6	-0.0	-0.0	-0.0	-10.00378131866455	57.805274963378906	-309.995361328125	10.413089752197266	-76.38734436035156	-342.9100036621094	-0.0	-0.0	-0.0	-0.0	-0.0	-0.0	45918.390625	20390.470703125	718.613037109375
0.6005	-0.0	-0.0	-0.0	-8.576465606689453	58.03614044189453	-311.85791015625	11.388648986816406	-76.0120849609375	-351.94482421875	-0.0	-0.0	-0.0	-0.0	-0.0	-0.0	48049.828125	19414.080078125	1001.265869140625
0.601	-0.0	-0.0	-0.0	-7.072283744812012	57.79344940185547	-313.7701721191406	11.94263744354248	-76.02291107177734	-360.935546875	-0.0	-0.0	-0.0	-0.0	-0.0	-0.0	49855.51171875	18480.056640625	1205.409423828125
0.6015	-0.0	-0.0	-0.0	-5.924992561340332	58.48189926147461	-319.0298767089844	12.48598575592041	-76.14437103271484	-372.0205993652344	-0.0	-0.0	-0.0	-0.0	-0.0	-0.0	51990.84375	17523.935546875	1276.2459716796875
0.602	-0.0	-0.0	-0.0	-5.057986259460449	57.7295150756836	-319.8248596191406	12.93020725250244	-76.66322326660156	-380.4871520996094	-0.0	-0.0	-0.0	-0.0	-0.0	-0.0	54030.94921875	16438.478515625	1417.3394775390625
0.6025	-0.0	-0.0	-0.0	-4.854833602905273	58.71198272705078	-326.2817687988281	13.106717109680176	-77.17196655273438	-391.0940551757813	-0.0	-0.0	-0.0	-0.0	-0.0	-0.0	56492.56640625	15483.4853515625	1472.921875
0.603	-0.0	-0.0	-0.0	-4.956690788269043	59.68133544921875	-331.3323669433594	14.026063919067385	-77.96559143066406	-402.0451049804688	-0.0	-0.0	-0.0	-0.0	-0.0	-0.0	58524.72265625	14490.0029296875	1621.6943359375
0.6035	-0.0	-0.0	-0.0	-5.238216876983643	60.265743255615234	-342.1854248046875	14.293787956237791	-78.59500122070312	-411.7308349609375	-0.0	-0.0	-0.0	-0.0	-0.0	-0.0	60785.59765625	13126.021484375	1692.4405517578125
0.604	-0.0	-0.0	-0.0	-4.7661542892456055	60.54485702514648	-349.4977111816406	14.748821258544922	-79.9967269897461	-421.6403503417969	-0.0	-0.0	-0.0	-0.0	-0.0	-0.0	62982.515625	12324.4013671875	1870.456298828125
0.6045	-0.0	-0.0	-0.0	-4.766312599182129	61.347129821777344	-352.72607421875	15.690340995788574	-80.41841125488281	-428.66790771484375	-0.0	-0.0	-0.0	-0.0	-0.0	-0.0	64876.2265625	10938.982421875	2167.711669921875
0.605	-0.0	-0.0	-0.0	-4.320469856262207	61.88174819946289	-364.2285461425781	16.61993980407715	-81.23297882080078	-435.9087524414063	-0.0	-0.0	-0.0	-0.0	-0.0	-0.0	66378.6953125	9677.0517578125	2307.639892578125
0.6055	-0.0	-0.0	-0.0	-4.167237758636475	63.00238037109375	-370.83892822265625	17.364160537719727	-81.89725494384766	-444.2422180175781	-0.0	-0.0	-0.0	-0.0	-0.0	-0.0	67890.8984375	8549.4140625	2449.791748046875
0.606	-0.0	-0.0	-0.0	-3.263184070587158	63.44795608520508	-377.3493957519531	18.69467544555664	-82.75741577148438	-450.1763305664063	-0.0	-0.0	-0.0	-0.0	-0.0	-0.0	69813.8359375	7418.345703125	2709.680419921875
0.6065	-0.0	-0.0	-0.0	-2.5741541385650635	64.0085678100586	-383.40533447265625	19.49785423278809	-84.01235961914062	-455.5047607421875	-0.0	-0.0	-0.0	-0.0	-0.0	-0.0	70797.3046875	6363.50439453125	2763.01904296875
0.607	-0.0	-0.0	-0.0	-2.33074164390564	65.0634765625	-389.5574951171875	20.83529663085937	-84.6771240234375	-459.575927734375	-0.0	-0.0	-0.0	-0.0	-0.0	-0.0	72205.8671875	5375.97265625	3074.4453125
0.6075	-0.0	-0.0	-0.0	-1.3381576538085938	65.42172241210938	-394.1488037109375	21.81104278564453	-85.27745819091797	-464.7208251953125	-0.0	-0.0	-0.0	-0.0	-0.0	-0.0	73593.875	4240.4541015625	3110.5078125
0.608	-0.0	-0.0	-0.0	-0.5352630615234375	65.96961212158203	-399.5504760742188	22.65687370300293	-86.937744140625	-469.3752746582031	-0.0	-0.0	-0.0	-0.0	-0.0	-0.0	74846.390625	2958.27490234375	3431.08935546875
0.6085	-0.0	-0.0	-0.0	-0.2676315307617187	66.58041381835938	-403.0827026367188	23.726783752441406	-87.60324096679688	-473.6373596191406	-0.0	-0.0	-0.0	-0.0	-0.0	-0.0	75894.1953125	1762.2608642578125	3761.956298828125
0.609	-0.0	-0.0	-0.0	0.7631447911262512	66.49128723144531	-406.40521240234375	24.726316452026367	-88.42195129394531	-479.40380859375	-0.0	-0.0	-0.0	-0.0	-0.0	-0.0	76999.890625	806.6964111328125	3847.43994140625
0.6095	-0.0	-0.0	-0.0	1.936052083969116	66.49128723144531	-410.3424682617188	25.335176467895508	-88.69893646240234	-482.4801635742188	-0.0	-0.0	-0.0	-0.0	-0.0	-0.0	78350.046875	-39.27886199951172	3928.732177734375
0.61	-0.0	-0.0	-0.0	3.443450927734375	66.32637023925781	-411.1014404296875	26.09703063964844	-88.89984893798828	-486.1143493652344	-0.0	-0.0	-0.0	-0.0	-0.0	-0.0	79341.7734375	-934.8765869140624	4111.18310546875
0.6105	-0.0	-0.0	-0.0	4.674508571624756	66.12602233886719	-413.4144287109375	26.056655883789062	-88.86372375488281	-491.5576171875	-0.0	-0.0	-0.0	-0.0	-0.0	-0.0	80411.6875	-1934.9920654296875	4063.998779296875
0.611	-0.0	-0.0	-0.0	5.9232988357543945	66.14820098876953	-415.4993591308594	26.524524688720703	-88.3459701538086	-494.8918762207031	-0.0	-0.0	-0.0	-0.0	-0.0	-0.0	81033.890625	-2804.697998046875	4060.397705078125
0.6115	-0.0	-0.0	-0.0	7.961322784423828	66.6560287475586	-417.6193237304688	26.396181106567383	-87.92894744873047	-497.6487426757813	-0.0	-0.0	-0.0	-0.0	-0.0	-0.0	82078.2578125	-3318.40966796875	3971.42041015625
0.612	-0.0	-0.0	-0.0	8.94822883605957	66.90978240966797	-419.224609375	27.00507926940918	-87.86780548095703	-501.2267761230469	-0.0	-0.0	-0.0	-0.0	-0.0	-0.0	83124.609375	-4022.127197265625	3976.7880859375
0.6125	-0.0	-0.0	-0.0	11.083106994628906	67.25257110595703	-424.9834899902344	26.906150817871094	-87.07286071777344	-505.4740295410156	-0.0	-0.0	-0.0	-0.0	-0.0	-0.0	83621.0703125	-4551.388671875	3849.20263671875
0.613	-0.0	-0.0	-0.0	12.894391059875488	67.86933135986328	-427.5380859375	26.35955810546875	-87.4136734008789	-508.7689208984375	-0.0	-0.0	-0.0	-0.0	-0.0	-0.0	84406.7578125	-5028.49853515625	3717.043212890625
